<svg xmlns="http://www.w3.org/2000/svg" height="48" viewBox="0 96 960 960" width="48"><path fill="#fff" d="M236 800.846q57.846-39.615 116.507-61.577 58.661-21.961 127.538-21.961 68.878 0 127.109 21.961 58.231 21.962 118.077 61.577 42.231-49.077 64.615-104.451Q812.231 641.022 812.231 576q0-139.077-96.577-235.654T480 243.769q-139.077 0-235.654 96.577T147.769 576q0 65.022 22.5 120.395 22.5 55.374 65.731 104.451Zm243.792-197.461q-55.1 0-92.715-37.823-37.616-37.823-37.616-92.923 0-55.101 37.823-92.716 37.823-37.615 92.924-37.615 55.1 0 92.715 37.823 37.616 37.823 37.616 92.923t-37.823 92.715q-37.823 37.616-92.924 37.616ZM480.468 952q-78.545 0-146.552-29.301-68.006-29.302-119.423-81.154-51.416-51.853-80.955-119.426Q104 654.545 104 575.619q0-76.927 29.749-145.032 29.749-68.106 81.118-120.045 51.37-51.939 118.979-81.241Q401.455 200 480.381 200q76.927 0 145.032 29.749 68.106 29.749 119.808 81.154 51.702 51.405 81.241 119.548Q856 498.595 856 575.532q0 78.545-29.301 146.552-29.302 68.006-81.241 119.212t-119.996 80.955Q557.405 952 480.468 952ZM480 908.231q54.538 0 109.5-18.462 54.961-18.461 100.808-57.692-45.433-33.428-99.294-52.214-53.86-18.786-111.014-18.786-57.154 0-111.192 18.385-54.039 18.384-97.346 52.918 44.077 38.535 99.038 57.193 54.962 18.658 109.5 18.658Zm.107-348.616q36.739 0 61.701-25.069 24.961-25.068 24.961-61.807 0-36.739-25.069-61.701-25.069-24.961-61.807-24.961-36.739 0-61.701 25.069-24.961 25.069-24.961 61.807 0 36.739 25.069 61.701 25.069 24.961 61.807 24.961ZM480 472.846Zm0 361.308Z"/></svg>