<svg xmlns="http://www.w3.org/2000/svg" height="48" viewBox="0 96 960 960" width="48"><path fill="#fff" d="M480 952q-79.551 0-147.506-29.538-67.956-29.539-118.686-80.269-50.731-50.731-80.27-118.687Q104 655.551 104 576q0-79.077 29.538-147.269 29.539-68.193 80.27-118.924 50.73-50.73 118.686-80.269Q400.449 200 480 200q79.077 0 147.269 29.538 68.193 29.539 118.924 80.269 50.73 50.731 80.269 118.924Q856 496.923 856 576v43.846q0 55.846-37.115 89.847-37.116 34-88.193 34-39.846 0-68.115-19.193-28.269-19.192-43.654-53.038-24.154 32.769-57.077 52.5T480 743.693q-69.774 0-118.849-48.96Q312.077 645.774 312.077 576q0-71.543 49.074-119.849Q410.226 407.846 480 407.846t118.849 48.305Q647.923 504.457 647.923 576v43.846q0 31.616 24.277 55.846 24.277 24.231 58.492 24.231 32.985 0 57.262-24.231 24.277-24.23 24.277-55.846V576q0-136.846-97.692-234.539Q616.846 243.769 480 243.769t-234.539 97.692Q147.769 439.154 147.769 576t97.692 234.539q97.693 97.692 234.309 97.692h208.538V952H480Zm.118-252.077q52.344 0 88.19-35.848 35.846-35.849 35.846-88.193 0-51.574-35.964-87.92-35.964-36.347-88.308-36.347-52.344 0-88.19 36.464t-35.846 88.039q0 52.344 35.964 88.074 35.964 35.731 88.308 35.731Z"/></svg>