<svg xmlns="http://www.w3.org/2000/svg" height="48" viewBox="0 96 960 960" width="48"><path fill="000" d="M172.384 871q-27.782 0-48.083-20.301T104 802.616V349.384q0-27.782 20.301-48.083T172.384 281h615.232q27.782 0 48.083 20.301T856 349.384v453.232q0 27.782-20.301 48.083T787.616 871H172.384ZM480 581.154 147.769 362.231v440.385q0 10.769 6.923 17.692t17.692 6.923h615.232q10.769 0 17.692-6.923t6.923-17.692V362.231L480 581.154Zm0-46.385 322.231-210H158.769l321.231 210ZM143.769 362.231v-37.462 477.847q3 10.769 10.423 17.692t18.192 6.923h-28.615v-465Z"/></svg>