<svg xmlns="http://www.w3.org/2000/svg" height="24" viewBox="0 -960 960 960" width="24"><path fill="#222" d="M218.615-128q-38.34 0-64.478-26.137Q128-180.275 128-218.615v-522.77q0-38.34 26.137-64.478Q180.275-832 218.615-832h249.616v66H218.615q-9.23 0-16.923 7.692Q194-750.615 194-741.385v522.77q0 9.23 7.692 16.923Q209.385-194 218.615-194h522.77q9.23 0 16.923-7.692Q766-209.385 766-218.615v-249.616h66v249.616q0 38.34-26.137 64.478Q779.725-128 741.385-128h-522.77Zm167.923-212.231-46.307-46.307L719.692-766H579v-66h253v253h-66v-140.692L386.538-340.231Z"/></svg>