<svg xmlns="http://www.w3.org/2000/svg" height="48" viewBox="0 96 960 960" width="48"><path fill="#222" d="M458.615 897.154V588.539L187.769 431.231v295.75q0 6.154 3.077 11.538 3.077 5.385 9.231 9.231l258.538 149.404Zm43.77 0L759.923 747.75q6.154-3.846 9.231-9.231 3.077-5.384 3.077-11.538V432L502.385 588.396v308.758ZM480 551.923l266.615-155.308-254.307-147.384q-6.154-3.077-12.308-3.077t-12.308 3.077L213.154 396.615 480 551.923ZM178.692 786.385q-17.481-9.657-26.086-25.761Q144 744.52 144 727.231V424.769q0-17.289 8.606-33.393 8.605-16.104 26.086-25.761l267.616-155q16.132-9.231 33.643-9.231t34.741 9.231l266.616 155q16.481 9.657 25.586 25.761Q816 407.48 816 424.769v302.462q0 17.289-9.106 33.393-9.105 16.104-25.586 25.761l-266.616 155q-17.558 9.231-35.069 9.231-17.511 0-33.315-9.231l-267.616-155ZM480 576Z"/></svg>